<svg width="500" height="500" viewBox="0 0 500 500" fill="none" xmlns="http://www.w3.org/2000/svg">
<symbol viewBox="0 0 500 500" id="logo">
<path fill="currentColor" fill-rule="evenodd" clip-rule="evenodd" d="M250 0L0 250L250 500L500 250L250 0ZM204.087 165.378H243.909V177.823H221.509V205.2H204.087V165.378ZM253.865 165.378H293.687V205.2H276.264V177.823H253.865V165.378ZM228.976 185.289H268.798V205.2H228.976V185.289ZM194.132 215.156H303.642V279.866H273.776V314.711H223.998V279.866H194.132V215.156ZM303.642 324.666H194.132V364.488H303.642V324.666ZM228.976 374.443H268.798V399.332H228.976V374.443ZM428.085 215.156H313.597V279.866H428.085V215.156ZM283.731 289.822H393.241V314.711H283.731V289.822ZM69.6883 215.156H184.176V279.866H69.6883V215.156ZM214.043 289.822H104.532V314.711H214.043V289.822Z" />
</symbol>
</svg>
